<svg width="29" height="29" viewBox="0 0 29 29" fill="none" xmlns="http://www.w3.org/2000/svg">
<path d="M26.8873 18.7882C23.1232 21.466 18.186 21.7634 14.1694 19.6667M1.77926 9.87852C5.55252 7.19422 10.5046 6.90184 14.5264 9.01532M18.8316 17.1658C22.6805 14.74 24.9091 10.2988 24.468 5.68296M9.77578 11.5383C5.96309 13.9721 3.75945 18.3915 4.19837 22.9837M19.0359 11.8494C18.8585 7.30468 16.1266 3.15579 11.9095 1.22963M9.63416 16.9009C9.84149 21.4128 12.5657 25.5227 16.757 27.437M23.7614 4.90525C28.9684 10.1122 28.9684 18.5544 23.7614 23.7614C18.5544 28.9684 10.1122 28.9684 4.90525 23.7614C-0.301748 18.5544 -0.301748 10.1122 4.90525 4.90525C10.1122 -0.301748 18.5544 -0.301748 23.7614 4.90525ZM18.1046 10.5621C20.1874 12.6449 20.1874 16.0218 18.1046 18.1046C16.0218 20.1874 12.6449 20.1874 10.5621 18.1046C8.4793 16.0218 8.4793 12.6449 10.5621 10.5621C12.6449 8.4793 16.0218 8.4793 18.1046 10.5621Z" stroke="#440A8F" stroke-width="2" stroke-linecap="round" stroke-linejoin="round"/>
</svg>
