<svg width="14" height="12" viewBox="0 0 14 12" fill="none" xmlns="http://www.w3.org/2000/svg">
<path d="M7.70046 11.8414C7.47552 12.0557 7.11947 12.047 6.9052 11.8221C6.69094 11.5971 6.69959 11.2411 6.92454 11.0268L11.6131 6.56083L0.5625 6.56083C0.251841 6.56083 0 6.30899 0 5.99833C0 5.68767 0.251841 5.43583 0.5625 5.43583L11.6132 5.43583L6.92454 0.9698C6.6996 0.755535 6.69094 0.399485 6.9052 0.17454C7.11947 -0.0504054 7.47552 -0.0590628 7.70046 0.155203L13.2647 5.45523C13.3914 5.57591 13.4663 5.72984 13.4896 5.88987C13.4964 5.92497 13.5 5.96123 13.5 5.99833C13.5 6.0355 13.4964 6.07184 13.4895 6.10699C13.4662 6.26692 13.3913 6.42075 13.2647 6.54136L7.70046 11.8414Z" fill="#BD9BE9"/>
</svg>
